<?xml version="1.0" encoding="utf-8"?>
<!-- Generator: Adobe Illustrator 21.0.2, SVG Export Plug-In . SVG Version: 6.00 Build 0)  -->
<svg version="1.1" id="Capa_1" xmlns="http://www.w3.org/2000/svg" xmlns:xlink="http://www.w3.org/1999/xlink" x="0px" y="0px"
	 viewBox="0 0 36.8 36.8" style="enable-background:new 0 0 36.8 36.8;" xml:space="preserve">
<style type="text/css">
	.st0{fill:#1D3A58;}
</style>
<g>
	<g>
		<path class="st0" d="M30.2,24.4c-1-0.6-2.3-0.3-3,0.7c-2.3,3.6-6.2,5.8-10.5,5.8c-6.9,0-12.4-5.6-12.4-12.4S9.9,6,16.7,6
			c3.6,0,7,1.6,9.4,4.3l-2.6,2l7.6,1l1-7.6l-2.6,2c-3.2-3.8-7.8-6-12.8-6C7.5,1.7,0,9.2,0,18.4s7.5,16.7,16.7,16.7
			c5.7,0,11-2.9,14.1-7.7C31.5,26.4,31.2,25.1,30.2,24.4z"/>
		<path class="st0" d="M26.4,20.5c1.6-1.2,3-2.5,3-4.3c0-1.4-1-2.4-2.8-2.4c-1,0-2,0.3-2.7,0.8l0.4,1.4c0.5-0.3,1.1-0.5,1.9-0.5
			s1.2,0.5,1.2,1.1c0,1.1-1.1,2.1-2.9,3.6l-1.9,1.5l-0.2,1.3h6.1l0.3-1.7l-3.2,0v0L26.4,20.5z"/>
		<path class="st0" d="M35.8,19.1l1-5.2h-2.4l-4.2,5.4l-0.2,1.3h3.8l-0.4,2.2h1.8l0.4-2.2h1.1l0.3-1.5L35.8,19.1
			C35.8,19.1,35.8,19.1,35.8,19.1z M34.3,17.2l-0.4,1.9h-1.9l0,0l1.5-1.9c0.4-0.6,0.8-1.1,1.2-1.8h0.1C34.6,16,34.5,16.6,34.3,17.2z
			"/>
		<path class="st0" d="M21.9,13.2c-0.2-0.2-0.6-0.2-0.8,0l-3.2,3.4c-0.3-0.2-0.7-0.3-1.2-0.3c0,0-0.1,0-0.1,0L12.3,12
			c-0.5-0.5-1.4-0.5-1.9,0c-0.5,0.5-0.5,1.4,0,1.9l4.2,4c0,0.1,0,0.3,0,0.4c0,0.5,0.1,0.9,0.4,1.3L13.6,21c-0.2,0.2-0.2,0.6,0,0.8
			c0.1,0.1,0.2,0.1,0.4,0.1c0.1,0,0.3-0.1,0.4-0.2l1.4-1.4c0.3,0.1,0.6,0.2,1,0.2c0.2,0,0.3,0,0.5-0.1l1,0.9
			c0.3,0.2,0.6,0.4,0.9,0.4c0.4,0,0.7-0.1,1-0.4c0.5-0.5,0.5-1.4,0-1.9l-1.2-1.1c0-0.4-0.1-0.7-0.3-1l3.3-3.4
			C22.1,13.7,22.1,13.4,21.9,13.2z"/>
	</g>
</g>
</svg>
