<?xml version="1.0" encoding="utf-8"?>
<!-- Generator: Adobe Illustrator 21.0.2, SVG Export Plug-In . SVG Version: 6.00 Build 0)  -->
<svg version="1.1" id="Layer_1" xmlns="http://www.w3.org/2000/svg" xmlns:xlink="http://www.w3.org/1999/xlink" x="0px" y="0px"
	 viewBox="0 0 511 511" style="enable-background:new 0 0 511 511;" xml:space="preserve">
<style type="text/css">
	.st0{fill:#FB8122;}
</style>
<g transform="translate(1)">
	<g>
		<g>
			<path class="st0" d="M475.1,72.5C440.1,35.8,403.4,17,363.3,17c-44.4,0-85.3,27.3-109.2,72.5C231,44.3,190,17,145.7,17
				c-39.3,0-75.9,17.9-111.8,55.5c-40.1,42.7-58,140.8,15.4,214.2c35,35,198,203.1,199.7,204.8s3.4,2.6,6,2.6c1.7,0,4.3-0.9,6-2.6
				s163.8-169.8,198.8-204.8C501.5,244,510,198.8,510,168.1C510,131.4,496.4,95.5,475.1,72.5z M447.8,274.7
				C417,305.4,284.8,442,254.9,473.5C225,442.8,92.8,305.4,62,274.7C-3.7,209,10.8,122,46.7,84.4c31.6-34.1,64-50.3,99-50.3
				c42.7,0,81.1,30.7,100.7,79.4c0.9,2.6,4.3,5.1,7.7,5.1s6.8-1.7,7.7-5.1c19.6-48.6,58-79.4,101.5-79.4c35,0,68.3,17.1,99.8,50.3
				C498.1,122,512.6,209.9,447.8,274.7z"/>
			<path class="st0" d="M377.8,169.8c-5.1,0-10,1.4-14.3,3.7c-3.9-11.9-15.3-20.8-28.4-20.8c-16.2,0-29.9,13.7-29.9,29.9v13.7H202.8
				v-13.7c0-16.2-13.7-29.9-29.9-29.9c-13.1,0-24.5,8.9-28.4,20.8c-4.3-2.4-9.1-3.7-14.3-3.7c-16.2,0-29.9,13.7-29.9,29.9v42.7
				c0,16.2,13.7,29.9,29.9,29.9c5.1,0,10-1.3,14.3-3.6c4,11.9,15.3,20.7,28.4,20.7c16.2,0,29.9-12.8,29.9-29.9v-11.9h102.4v11.9
				c0,16.2,13.7,29.9,29.9,29.9c13.2,0,24.6-8.4,28.5-20.8c4.2,2.3,9.1,3.7,14.2,3.7c16.2,0,29.9-12.8,29.9-29.9v-42.7
				C407.6,183.4,394,169.8,377.8,169.8z M130.3,255.1c-6.8,0-12.8-6-12.8-12.8v-42.7c0-6.8,6-12.8,12.8-12.8c6.8,0,12.8,6,12.8,12.8
				v42.7C143.1,249.1,137.1,255.1,130.3,255.1z M185.8,259.4c0,6.8-6,12.8-12.8,12.8s-12.8-6-12.8-12.8v-17.1v-42.7v-17.1
				c0-6.8,6-12.8,12.8-12.8s12.8,6,12.8,12.8v22.2v34.1V259.4z M202.8,230.3v-17.1h102.4v17.1H202.8z M347.9,259.4
				c0,6.8-6,12.8-12.8,12.8s-12.8-6-12.8-12.8v-20.5v-34.1v-22.2c0-6.8,6-12.8,12.8-12.8s12.8,6,12.8,12.8v17.1v42.7V259.4z
				 M390.6,242.3c0,6.8-6,12.8-12.8,12.8s-12.8-6-12.8-12.8v-42.7c0-6.8,6-12.8,12.8-12.8s12.8,6,12.8,12.8V242.3z"/>
		</g>
	</g>
</g>
</svg>
